<mxfile host="app.diagrams.net" modified="2024-03-09T15:35:51.882Z" agent="Mozilla/5.0 (Windows NT 10.0; Win64; x64) AppleWebKit/537.36 (KHTML, like Gecko) Chrome/122.0.0.0 Safari/537.36" etag="val35SkQWf4tOxMBEFkA" version="24.0.4" type="github">
  <diagram name="Page-1" id="YRmC6HSBJPKvMLiC9jO3">
    <mxGraphModel dx="2465" dy="857" grid="1" gridSize="10" guides="1" tooltips="1" connect="1" arrows="1" fold="1" page="1" pageScale="1" pageWidth="850" pageHeight="1100" math="0" shadow="0">
      <root>
        <mxCell id="0" />
        <mxCell id="1" parent="0" />
        <mxCell id="vZnBdHLrDG7tg5JqfQS1-1" value="Pronesi" style="whiteSpace=wrap;html=1;align=center;" vertex="1" parent="1">
          <mxGeometry x="390" y="120" width="100" height="40" as="geometry" />
        </mxCell>
        <mxCell id="vZnBdHLrDG7tg5JqfQS1-2" value="Automjeti" style="whiteSpace=wrap;html=1;align=center;" vertex="1" parent="1">
          <mxGeometry x="40" y="120" width="100" height="40" as="geometry" />
        </mxCell>
        <mxCell id="vZnBdHLrDG7tg5JqfQS1-3" value="Klienti" style="whiteSpace=wrap;html=1;align=center;" vertex="1" parent="1">
          <mxGeometry x="720" y="120" width="100" height="40" as="geometry" />
        </mxCell>
        <mxCell id="vZnBdHLrDG7tg5JqfQS1-4" value="Siguracioni" style="whiteSpace=wrap;html=1;align=center;" vertex="1" parent="1">
          <mxGeometry x="390" y="360" width="100" height="40" as="geometry" />
        </mxCell>
        <mxCell id="vZnBdHLrDG7tg5JqfQS1-5" value="Kontrata" style="whiteSpace=wrap;html=1;align=center;" vertex="1" parent="1">
          <mxGeometry x="40" y="360" width="100" height="40" as="geometry" />
        </mxCell>
        <mxCell id="vZnBdHLrDG7tg5JqfQS1-6" value="Kompania" style="whiteSpace=wrap;html=1;align=center;" vertex="1" parent="1">
          <mxGeometry x="720" y="360" width="100" height="40" as="geometry" />
        </mxCell>
        <mxCell id="vZnBdHLrDG7tg5JqfQS1-7" value="Shasia" style="ellipse;whiteSpace=wrap;html=1;align=center;fontStyle=4;" vertex="1" parent="1">
          <mxGeometry y="20" width="100" height="40" as="geometry" />
        </mxCell>
        <mxCell id="vZnBdHLrDG7tg5JqfQS1-8" value="Targa" style="ellipse;whiteSpace=wrap;html=1;align=center;" vertex="1" parent="1">
          <mxGeometry x="100" y="30" width="100" height="40" as="geometry" />
        </mxCell>
        <mxCell id="vZnBdHLrDG7tg5JqfQS1-9" value="Nr_personal" style="ellipse;whiteSpace=wrap;html=1;align=center;" vertex="1" parent="1">
          <mxGeometry x="-100" y="360" width="100" height="40" as="geometry" />
        </mxCell>
        <mxCell id="vZnBdHLrDG7tg5JqfQS1-10" value="Targa" style="ellipse;whiteSpace=wrap;html=1;align=center;" vertex="1" parent="1">
          <mxGeometry x="-60" y="300" width="100" height="40" as="geometry" />
        </mxCell>
        <mxCell id="vZnBdHLrDG7tg5JqfQS1-11" value="nr_km" style="ellipse;whiteSpace=wrap;html=1;align=center;" vertex="1" parent="1">
          <mxGeometry x="150" y="70" width="100" height="40" as="geometry" />
        </mxCell>
        <mxCell id="vZnBdHLrDG7tg5JqfQS1-12" value="Kambio" style="ellipse;whiteSpace=wrap;html=1;align=center;" vertex="1" parent="1">
          <mxGeometry x="140" y="190" width="100" height="40" as="geometry" />
        </mxCell>
        <mxCell id="vZnBdHLrDG7tg5JqfQS1-13" value="Motorri" style="ellipse;whiteSpace=wrap;html=1;align=center;" vertex="1" parent="1">
          <mxGeometry x="-60" y="180" width="100" height="40" as="geometry" />
        </mxCell>
        <mxCell id="vZnBdHLrDG7tg5JqfQS1-14" value="nr_pasagjereve" style="ellipse;whiteSpace=wrap;html=1;align=center;" vertex="1" parent="1">
          <mxGeometry x="40" y="210" width="100" height="40" as="geometry" />
        </mxCell>
        <mxCell id="vZnBdHLrDG7tg5JqfQS1-15" value="Viti_Prodhimit" style="ellipse;whiteSpace=wrap;html=1;align=center;" vertex="1" parent="1">
          <mxGeometry x="-70" y="120" width="100" height="40" as="geometry" />
        </mxCell>
        <mxCell id="vZnBdHLrDG7tg5JqfQS1-16" value="Modeli" style="ellipse;whiteSpace=wrap;html=1;align=center;" vertex="1" parent="1">
          <mxGeometry x="-70" y="60" width="100" height="40" as="geometry" />
        </mxCell>
        <mxCell id="vZnBdHLrDG7tg5JqfQS1-17" value="ka" style="shape=rhombus;perimeter=rhombusPerimeter;whiteSpace=wrap;html=1;align=center;" vertex="1" parent="1">
          <mxGeometry x="240" y="120" width="70" height="40" as="geometry" />
        </mxCell>
        <mxCell id="vZnBdHLrDG7tg5JqfQS1-18" value="" style="endArrow=none;html=1;rounded=0;exitX=1;exitY=0.5;exitDx=0;exitDy=0;entryX=0;entryY=0.5;entryDx=0;entryDy=0;" edge="1" parent="1" source="vZnBdHLrDG7tg5JqfQS1-2" target="vZnBdHLrDG7tg5JqfQS1-17">
          <mxGeometry relative="1" as="geometry">
            <mxPoint x="170" y="140" as="sourcePoint" />
            <mxPoint x="250" y="140" as="targetPoint" />
          </mxGeometry>
        </mxCell>
        <mxCell id="vZnBdHLrDG7tg5JqfQS1-21" value="" style="endArrow=none;html=1;rounded=0;exitX=1;exitY=0.5;exitDx=0;exitDy=0;entryX=0;entryY=0.5;entryDx=0;entryDy=0;" edge="1" parent="1" source="vZnBdHLrDG7tg5JqfQS1-17" target="vZnBdHLrDG7tg5JqfQS1-1">
          <mxGeometry relative="1" as="geometry">
            <mxPoint x="310" y="150" as="sourcePoint" />
            <mxPoint x="470" y="150" as="targetPoint" />
          </mxGeometry>
        </mxCell>
        <mxCell id="vZnBdHLrDG7tg5JqfQS1-22" value="1" style="text;html=1;align=center;verticalAlign=middle;resizable=0;points=[];autosize=1;strokeColor=none;fillColor=none;" vertex="1" parent="1">
          <mxGeometry x="135" y="118" width="30" height="30" as="geometry" />
        </mxCell>
        <mxCell id="vZnBdHLrDG7tg5JqfQS1-23" value="M" style="text;html=1;align=center;verticalAlign=middle;resizable=0;points=[];autosize=1;strokeColor=none;fillColor=none;" vertex="1" parent="1">
          <mxGeometry x="365" y="118" width="30" height="30" as="geometry" />
        </mxCell>
        <mxCell id="vZnBdHLrDG7tg5JqfQS1-24" value="" style="endArrow=none;html=1;rounded=0;exitX=0.5;exitY=1;exitDx=0;exitDy=0;entryX=0.25;entryY=0;entryDx=0;entryDy=0;" edge="1" parent="1" source="vZnBdHLrDG7tg5JqfQS1-7" target="vZnBdHLrDG7tg5JqfQS1-2">
          <mxGeometry relative="1" as="geometry">
            <mxPoint x="70" y="90" as="sourcePoint" />
            <mxPoint x="230" y="90" as="targetPoint" />
          </mxGeometry>
        </mxCell>
        <mxCell id="vZnBdHLrDG7tg5JqfQS1-25" value="" style="endArrow=none;html=1;rounded=0;exitX=1;exitY=0;exitDx=0;exitDy=0;entryX=0;entryY=1;entryDx=0;entryDy=0;" edge="1" parent="1" source="vZnBdHLrDG7tg5JqfQS1-2" target="vZnBdHLrDG7tg5JqfQS1-11">
          <mxGeometry relative="1" as="geometry">
            <mxPoint x="130" y="100" as="sourcePoint" />
            <mxPoint x="290" y="100" as="targetPoint" />
          </mxGeometry>
        </mxCell>
        <mxCell id="vZnBdHLrDG7tg5JqfQS1-26" value="" style="endArrow=none;html=1;rounded=0;exitX=0.75;exitY=0;exitDx=0;exitDy=0;entryX=0;entryY=1;entryDx=0;entryDy=0;" edge="1" parent="1" source="vZnBdHLrDG7tg5JqfQS1-2" target="vZnBdHLrDG7tg5JqfQS1-8">
          <mxGeometry relative="1" as="geometry">
            <mxPoint x="120" y="100" as="sourcePoint" />
            <mxPoint x="280" y="100" as="targetPoint" />
          </mxGeometry>
        </mxCell>
        <mxCell id="vZnBdHLrDG7tg5JqfQS1-27" value="" style="endArrow=none;html=1;rounded=0;exitX=1;exitY=1;exitDx=0;exitDy=0;entryX=0;entryY=0;entryDx=0;entryDy=0;" edge="1" parent="1" source="vZnBdHLrDG7tg5JqfQS1-16" target="vZnBdHLrDG7tg5JqfQS1-2">
          <mxGeometry relative="1" as="geometry">
            <mxPoint x="70" y="100" as="sourcePoint" />
            <mxPoint x="230" y="100" as="targetPoint" />
          </mxGeometry>
        </mxCell>
        <mxCell id="vZnBdHLrDG7tg5JqfQS1-28" value="" style="endArrow=none;html=1;rounded=0;exitX=1;exitY=0.5;exitDx=0;exitDy=0;entryX=0;entryY=0.5;entryDx=0;entryDy=0;" edge="1" parent="1" source="vZnBdHLrDG7tg5JqfQS1-15" target="vZnBdHLrDG7tg5JqfQS1-2">
          <mxGeometry relative="1" as="geometry">
            <mxPoint x="80" y="190" as="sourcePoint" />
            <mxPoint x="240" y="190" as="targetPoint" />
          </mxGeometry>
        </mxCell>
        <mxCell id="vZnBdHLrDG7tg5JqfQS1-29" value="" style="endArrow=none;html=1;rounded=0;exitX=1;exitY=0;exitDx=0;exitDy=0;entryX=0;entryY=1;entryDx=0;entryDy=0;" edge="1" parent="1" source="vZnBdHLrDG7tg5JqfQS1-13" target="vZnBdHLrDG7tg5JqfQS1-2">
          <mxGeometry relative="1" as="geometry">
            <mxPoint x="80" y="190" as="sourcePoint" />
            <mxPoint x="240" y="190" as="targetPoint" />
          </mxGeometry>
        </mxCell>
        <mxCell id="vZnBdHLrDG7tg5JqfQS1-30" value="" style="endArrow=none;html=1;rounded=0;exitX=0.5;exitY=0;exitDx=0;exitDy=0;entryX=0.5;entryY=1;entryDx=0;entryDy=0;" edge="1" parent="1" source="vZnBdHLrDG7tg5JqfQS1-14" target="vZnBdHLrDG7tg5JqfQS1-2">
          <mxGeometry relative="1" as="geometry">
            <mxPoint x="90" y="190" as="sourcePoint" />
            <mxPoint x="250" y="190" as="targetPoint" />
          </mxGeometry>
        </mxCell>
        <mxCell id="vZnBdHLrDG7tg5JqfQS1-31" value="" style="endArrow=none;html=1;rounded=0;exitX=0.75;exitY=1;exitDx=0;exitDy=0;entryX=0;entryY=0;entryDx=0;entryDy=0;" edge="1" parent="1" source="vZnBdHLrDG7tg5JqfQS1-2" target="vZnBdHLrDG7tg5JqfQS1-12">
          <mxGeometry relative="1" as="geometry">
            <mxPoint x="140" y="180" as="sourcePoint" />
            <mxPoint x="300" y="180" as="targetPoint" />
          </mxGeometry>
        </mxCell>
        <mxCell id="vZnBdHLrDG7tg5JqfQS1-32" value="Data_fillimit" style="ellipse;whiteSpace=wrap;html=1;align=center;" vertex="1" parent="1">
          <mxGeometry x="-30" y="420" width="100" height="40" as="geometry" />
        </mxCell>
        <mxCell id="vZnBdHLrDG7tg5JqfQS1-34" value="Data_mbarimit" style="ellipse;whiteSpace=wrap;html=1;align=center;" vertex="1" parent="1">
          <mxGeometry x="90" y="430" width="100" height="40" as="geometry" />
        </mxCell>
        <mxCell id="vZnBdHLrDG7tg5JqfQS1-36" value="" style="shape=rhombus;perimeter=rhombusPerimeter;whiteSpace=wrap;html=1;align=center;" vertex="1" parent="1">
          <mxGeometry x="250" y="260" width="70" height="40" as="geometry" />
        </mxCell>
        <mxCell id="vZnBdHLrDG7tg5JqfQS1-37" value="" style="endArrow=none;html=1;rounded=0;exitX=1;exitY=0;exitDx=0;exitDy=0;entryX=0;entryY=0.5;entryDx=0;entryDy=0;" edge="1" parent="1" source="vZnBdHLrDG7tg5JqfQS1-5" target="vZnBdHLrDG7tg5JqfQS1-36">
          <mxGeometry relative="1" as="geometry">
            <mxPoint x="190" y="330" as="sourcePoint" />
            <mxPoint x="350" y="330" as="targetPoint" />
          </mxGeometry>
        </mxCell>
        <mxCell id="vZnBdHLrDG7tg5JqfQS1-38" value="" style="endArrow=none;html=1;rounded=0;exitX=1;exitY=0.5;exitDx=0;exitDy=0;entryX=0;entryY=1;entryDx=0;entryDy=0;" edge="1" parent="1" source="vZnBdHLrDG7tg5JqfQS1-36" target="vZnBdHLrDG7tg5JqfQS1-1">
          <mxGeometry relative="1" as="geometry">
            <mxPoint x="410" y="270" as="sourcePoint" />
            <mxPoint x="570" y="270" as="targetPoint" />
          </mxGeometry>
        </mxCell>
        <mxCell id="vZnBdHLrDG7tg5JqfQS1-39" value="" style="endArrow=none;html=1;rounded=0;exitX=1;exitY=1;exitDx=0;exitDy=0;entryX=0;entryY=0;entryDx=0;entryDy=0;" edge="1" parent="1" source="vZnBdHLrDG7tg5JqfQS1-10" target="vZnBdHLrDG7tg5JqfQS1-5">
          <mxGeometry relative="1" as="geometry">
            <mxPoint x="70" y="310" as="sourcePoint" />
            <mxPoint x="230" y="310" as="targetPoint" />
          </mxGeometry>
        </mxCell>
        <mxCell id="vZnBdHLrDG7tg5JqfQS1-40" value="" style="endArrow=none;html=1;rounded=0;exitX=1;exitY=0.5;exitDx=0;exitDy=0;entryX=0;entryY=0.5;entryDx=0;entryDy=0;" edge="1" parent="1" source="vZnBdHLrDG7tg5JqfQS1-9" target="vZnBdHLrDG7tg5JqfQS1-5">
          <mxGeometry relative="1" as="geometry">
            <mxPoint x="30" y="400" as="sourcePoint" />
            <mxPoint x="190" y="400" as="targetPoint" />
          </mxGeometry>
        </mxCell>
        <mxCell id="vZnBdHLrDG7tg5JqfQS1-41" value="" style="endArrow=none;html=1;rounded=0;exitX=0.5;exitY=0;exitDx=0;exitDy=0;entryX=0;entryY=1;entryDx=0;entryDy=0;" edge="1" parent="1" source="vZnBdHLrDG7tg5JqfQS1-32" target="vZnBdHLrDG7tg5JqfQS1-5">
          <mxGeometry relative="1" as="geometry">
            <mxPoint x="80" y="440" as="sourcePoint" />
            <mxPoint x="240" y="440" as="targetPoint" />
          </mxGeometry>
        </mxCell>
        <mxCell id="vZnBdHLrDG7tg5JqfQS1-42" value="" style="endArrow=none;html=1;rounded=0;exitX=0.5;exitY=1;exitDx=0;exitDy=0;entryX=0;entryY=0;entryDx=0;entryDy=0;" edge="1" parent="1" source="vZnBdHLrDG7tg5JqfQS1-5" target="vZnBdHLrDG7tg5JqfQS1-34">
          <mxGeometry relative="1" as="geometry">
            <mxPoint x="180" y="410" as="sourcePoint" />
            <mxPoint x="340" y="410" as="targetPoint" />
          </mxGeometry>
        </mxCell>
        <mxCell id="vZnBdHLrDG7tg5JqfQS1-43" value="M" style="text;html=1;align=center;verticalAlign=middle;resizable=0;points=[];autosize=1;strokeColor=none;fillColor=none;" vertex="1" parent="1">
          <mxGeometry x="125" y="338" width="30" height="30" as="geometry" />
        </mxCell>
        <mxCell id="vZnBdHLrDG7tg5JqfQS1-44" value="1" style="text;html=1;align=center;verticalAlign=middle;resizable=0;points=[];autosize=1;strokeColor=none;fillColor=none;" vertex="1" parent="1">
          <mxGeometry x="360" y="160" width="30" height="30" as="geometry" />
        </mxCell>
        <mxCell id="vZnBdHLrDG7tg5JqfQS1-46" value="" style="shape=rhombus;perimeter=rhombusPerimeter;whiteSpace=wrap;html=1;align=center;" vertex="1" parent="1">
          <mxGeometry x="215" y="350" width="120" height="60" as="geometry" />
        </mxCell>
        <mxCell id="vZnBdHLrDG7tg5JqfQS1-48" value="" style="endArrow=none;html=1;rounded=0;exitX=1;exitY=0.5;exitDx=0;exitDy=0;entryX=0;entryY=0.5;entryDx=0;entryDy=0;" edge="1" parent="1" source="vZnBdHLrDG7tg5JqfQS1-46" target="vZnBdHLrDG7tg5JqfQS1-4">
          <mxGeometry relative="1" as="geometry">
            <mxPoint x="360" y="370" as="sourcePoint" />
            <mxPoint x="520" y="370" as="targetPoint" />
          </mxGeometry>
        </mxCell>
        <mxCell id="vZnBdHLrDG7tg5JqfQS1-50" value="" style="endArrow=none;html=1;rounded=0;exitX=1;exitY=0.5;exitDx=0;exitDy=0;entryX=0;entryY=0.5;entryDx=0;entryDy=0;" edge="1" parent="1" source="vZnBdHLrDG7tg5JqfQS1-5" target="vZnBdHLrDG7tg5JqfQS1-46">
          <mxGeometry relative="1" as="geometry">
            <mxPoint x="170" y="400" as="sourcePoint" />
            <mxPoint x="330" y="400" as="targetPoint" />
          </mxGeometry>
        </mxCell>
        <mxCell id="vZnBdHLrDG7tg5JqfQS1-51" value="M" style="text;html=1;align=center;verticalAlign=middle;resizable=0;points=[];autosize=1;strokeColor=none;fillColor=none;" vertex="1" parent="1">
          <mxGeometry x="135" y="360" width="30" height="30" as="geometry" />
        </mxCell>
        <mxCell id="vZnBdHLrDG7tg5JqfQS1-52" value="1" style="text;html=1;align=center;verticalAlign=middle;resizable=0;points=[];autosize=1;strokeColor=none;fillColor=none;" vertex="1" parent="1">
          <mxGeometry x="365" y="358" width="30" height="30" as="geometry" />
        </mxCell>
        <mxCell id="vZnBdHLrDG7tg5JqfQS1-53" value="tipologjia" style="ellipse;whiteSpace=wrap;html=1;align=center;" vertex="1" parent="1">
          <mxGeometry x="360" y="460" width="100" height="40" as="geometry" />
        </mxCell>
        <mxCell id="vZnBdHLrDG7tg5JqfQS1-54" value="ID" style="ellipse;whiteSpace=wrap;html=1;align=center;fontStyle=4;" vertex="1" parent="1">
          <mxGeometry x="270" y="420" width="100" height="40" as="geometry" />
        </mxCell>
        <mxCell id="vZnBdHLrDG7tg5JqfQS1-55" value="&lt;span style=&quot;border-bottom: 1px dotted&quot;&gt;NIPT&lt;/span&gt;" style="ellipse;whiteSpace=wrap;html=1;align=center;" vertex="1" parent="1">
          <mxGeometry x="480" y="460" width="100" height="40" as="geometry" />
        </mxCell>
        <mxCell id="vZnBdHLrDG7tg5JqfQS1-57" value="Pershkrimi" style="ellipse;whiteSpace=wrap;html=1;align=center;" vertex="1" parent="1">
          <mxGeometry x="540" y="420" width="100" height="40" as="geometry" />
        </mxCell>
        <mxCell id="vZnBdHLrDG7tg5JqfQS1-58" value="" style="shape=rhombus;perimeter=rhombusPerimeter;whiteSpace=wrap;html=1;align=center;" vertex="1" parent="1">
          <mxGeometry x="550" y="350" width="120" height="60" as="geometry" />
        </mxCell>
        <mxCell id="vZnBdHLrDG7tg5JqfQS1-59" value="" style="endArrow=none;html=1;rounded=0;exitX=1;exitY=0.5;exitDx=0;exitDy=0;entryX=0;entryY=0.5;entryDx=0;entryDy=0;" edge="1" parent="1" source="vZnBdHLrDG7tg5JqfQS1-4" target="vZnBdHLrDG7tg5JqfQS1-58">
          <mxGeometry relative="1" as="geometry">
            <mxPoint x="520" y="390" as="sourcePoint" />
            <mxPoint x="680" y="390" as="targetPoint" />
          </mxGeometry>
        </mxCell>
        <mxCell id="vZnBdHLrDG7tg5JqfQS1-60" value="" style="endArrow=none;html=1;rounded=0;exitX=1;exitY=0.5;exitDx=0;exitDy=0;entryX=0;entryY=0.5;entryDx=0;entryDy=0;" edge="1" parent="1" source="vZnBdHLrDG7tg5JqfQS1-58" target="vZnBdHLrDG7tg5JqfQS1-6">
          <mxGeometry relative="1" as="geometry">
            <mxPoint x="740" y="430" as="sourcePoint" />
            <mxPoint x="900" y="430" as="targetPoint" />
          </mxGeometry>
        </mxCell>
        <mxCell id="vZnBdHLrDG7tg5JqfQS1-61" value="N" style="text;html=1;align=center;verticalAlign=middle;resizable=0;points=[];autosize=1;strokeColor=none;fillColor=none;" vertex="1" parent="1">
          <mxGeometry x="480" y="358" width="30" height="30" as="geometry" />
        </mxCell>
        <mxCell id="vZnBdHLrDG7tg5JqfQS1-62" value="1" style="text;html=1;align=center;verticalAlign=middle;resizable=0;points=[];autosize=1;strokeColor=none;fillColor=none;" vertex="1" parent="1">
          <mxGeometry x="695" y="358" width="30" height="30" as="geometry" />
        </mxCell>
        <mxCell id="vZnBdHLrDG7tg5JqfQS1-63" value="" style="shape=rhombus;perimeter=rhombusPerimeter;whiteSpace=wrap;html=1;align=center;" vertex="1" parent="1">
          <mxGeometry x="540" y="110" width="120" height="60" as="geometry" />
        </mxCell>
        <mxCell id="vZnBdHLrDG7tg5JqfQS1-64" value="" style="endArrow=none;html=1;rounded=0;exitX=1;exitY=0.5;exitDx=0;exitDy=0;entryX=0;entryY=0.5;entryDx=0;entryDy=0;" edge="1" parent="1" source="vZnBdHLrDG7tg5JqfQS1-1" target="vZnBdHLrDG7tg5JqfQS1-63">
          <mxGeometry relative="1" as="geometry">
            <mxPoint x="490" y="170" as="sourcePoint" />
            <mxPoint x="650" y="170" as="targetPoint" />
          </mxGeometry>
        </mxCell>
        <mxCell id="vZnBdHLrDG7tg5JqfQS1-65" value="" style="endArrow=none;html=1;rounded=0;exitX=1;exitY=0.5;exitDx=0;exitDy=0;entryX=0;entryY=0.5;entryDx=0;entryDy=0;" edge="1" parent="1" source="vZnBdHLrDG7tg5JqfQS1-63" target="vZnBdHLrDG7tg5JqfQS1-3">
          <mxGeometry relative="1" as="geometry">
            <mxPoint x="690" y="160" as="sourcePoint" />
            <mxPoint x="850" y="160" as="targetPoint" />
          </mxGeometry>
        </mxCell>
        <mxCell id="vZnBdHLrDG7tg5JqfQS1-66" value="" style="endArrow=none;html=1;rounded=0;exitX=1;exitY=0.5;exitDx=0;exitDy=0;entryX=0;entryY=1;entryDx=0;entryDy=0;" edge="1" parent="1" source="vZnBdHLrDG7tg5JqfQS1-54" target="vZnBdHLrDG7tg5JqfQS1-4">
          <mxGeometry relative="1" as="geometry">
            <mxPoint x="410" y="440" as="sourcePoint" />
            <mxPoint x="570" y="440" as="targetPoint" />
          </mxGeometry>
        </mxCell>
        <mxCell id="vZnBdHLrDG7tg5JqfQS1-67" value="" style="endArrow=none;html=1;rounded=0;exitX=0.5;exitY=0;exitDx=0;exitDy=0;entryX=0.25;entryY=1;entryDx=0;entryDy=0;" edge="1" parent="1" source="vZnBdHLrDG7tg5JqfQS1-53" target="vZnBdHLrDG7tg5JqfQS1-4">
          <mxGeometry relative="1" as="geometry">
            <mxPoint x="410" y="430" as="sourcePoint" />
            <mxPoint x="570" y="430" as="targetPoint" />
          </mxGeometry>
        </mxCell>
        <mxCell id="vZnBdHLrDG7tg5JqfQS1-68" value="" style="endArrow=none;html=1;rounded=0;exitX=0;exitY=0;exitDx=0;exitDy=0;entryX=0.75;entryY=1;entryDx=0;entryDy=0;" edge="1" parent="1" source="vZnBdHLrDG7tg5JqfQS1-55" target="vZnBdHLrDG7tg5JqfQS1-4">
          <mxGeometry relative="1" as="geometry">
            <mxPoint x="480" y="460" as="sourcePoint" />
            <mxPoint x="640" y="460" as="targetPoint" />
          </mxGeometry>
        </mxCell>
        <mxCell id="vZnBdHLrDG7tg5JqfQS1-69" value="" style="endArrow=none;html=1;rounded=0;exitX=1;exitY=1;exitDx=0;exitDy=0;entryX=0;entryY=0.5;entryDx=0;entryDy=0;" edge="1" parent="1" source="vZnBdHLrDG7tg5JqfQS1-4" target="vZnBdHLrDG7tg5JqfQS1-57">
          <mxGeometry relative="1" as="geometry">
            <mxPoint x="510" y="420" as="sourcePoint" />
            <mxPoint x="670" y="420" as="targetPoint" />
          </mxGeometry>
        </mxCell>
        <mxCell id="vZnBdHLrDG7tg5JqfQS1-70" value="NIPT" style="ellipse;whiteSpace=wrap;html=1;align=center;fontStyle=4;" vertex="1" parent="1">
          <mxGeometry x="670" y="430" width="100" height="40" as="geometry" />
        </mxCell>
        <mxCell id="vZnBdHLrDG7tg5JqfQS1-71" value="Adresa" style="ellipse;whiteSpace=wrap;html=1;align=center;" vertex="1" parent="1">
          <mxGeometry x="860" y="355" width="100" height="40" as="geometry" />
        </mxCell>
        <mxCell id="vZnBdHLrDG7tg5JqfQS1-72" value="Nr_tel" style="ellipse;whiteSpace=wrap;html=1;align=center;" vertex="1" parent="1">
          <mxGeometry x="810" y="300" width="100" height="40" as="geometry" />
        </mxCell>
        <mxCell id="vZnBdHLrDG7tg5JqfQS1-73" value="Emri" style="ellipse;whiteSpace=wrap;html=1;align=center;" vertex="1" parent="1">
          <mxGeometry x="790" y="420" width="100" height="40" as="geometry" />
        </mxCell>
        <mxCell id="vZnBdHLrDG7tg5JqfQS1-74" value="" style="endArrow=none;html=1;rounded=0;exitX=0.5;exitY=0;exitDx=0;exitDy=0;entryX=0;entryY=1;entryDx=0;entryDy=0;" edge="1" parent="1" source="vZnBdHLrDG7tg5JqfQS1-70" target="vZnBdHLrDG7tg5JqfQS1-6">
          <mxGeometry relative="1" as="geometry">
            <mxPoint x="770" y="490" as="sourcePoint" />
            <mxPoint x="930" y="490" as="targetPoint" />
          </mxGeometry>
        </mxCell>
        <mxCell id="vZnBdHLrDG7tg5JqfQS1-75" value="" style="endArrow=none;html=1;rounded=0;exitX=0;exitY=0;exitDx=0;exitDy=0;entryX=0.5;entryY=1;entryDx=0;entryDy=0;" edge="1" parent="1" source="vZnBdHLrDG7tg5JqfQS1-73" target="vZnBdHLrDG7tg5JqfQS1-6">
          <mxGeometry relative="1" as="geometry">
            <mxPoint x="800" y="450" as="sourcePoint" />
            <mxPoint x="960" y="450" as="targetPoint" />
          </mxGeometry>
        </mxCell>
        <mxCell id="vZnBdHLrDG7tg5JqfQS1-76" value="" style="endArrow=none;html=1;rounded=0;exitX=1;exitY=0.5;exitDx=0;exitDy=0;entryX=0;entryY=0.5;entryDx=0;entryDy=0;" edge="1" parent="1" source="vZnBdHLrDG7tg5JqfQS1-6" target="vZnBdHLrDG7tg5JqfQS1-71">
          <mxGeometry relative="1" as="geometry">
            <mxPoint x="840" y="400" as="sourcePoint" />
            <mxPoint x="1000" y="400" as="targetPoint" />
          </mxGeometry>
        </mxCell>
        <mxCell id="vZnBdHLrDG7tg5JqfQS1-77" value="" style="endArrow=none;html=1;rounded=0;exitX=0.75;exitY=0;exitDx=0;exitDy=0;entryX=0;entryY=1;entryDx=0;entryDy=0;" edge="1" parent="1" source="vZnBdHLrDG7tg5JqfQS1-6" target="vZnBdHLrDG7tg5JqfQS1-72">
          <mxGeometry relative="1" as="geometry">
            <mxPoint x="770" y="340" as="sourcePoint" />
            <mxPoint x="930" y="340" as="targetPoint" />
          </mxGeometry>
        </mxCell>
        <mxCell id="vZnBdHLrDG7tg5JqfQS1-78" value="Emer" style="ellipse;whiteSpace=wrap;html=1;align=center;" vertex="1" parent="1">
          <mxGeometry x="650" y="40" width="100" height="40" as="geometry" />
        </mxCell>
        <mxCell id="vZnBdHLrDG7tg5JqfQS1-79" value="Data_mbarimit" style="ellipse;whiteSpace=wrap;html=1;align=center;" vertex="1" parent="1">
          <mxGeometry x="470" y="50" width="100" height="40" as="geometry" />
        </mxCell>
        <mxCell id="vZnBdHLrDG7tg5JqfQS1-80" value="Data_fillimit" style="ellipse;whiteSpace=wrap;html=1;align=center;" vertex="1" parent="1">
          <mxGeometry x="395" y="10" width="100" height="40" as="geometry" />
        </mxCell>
        <mxCell id="vZnBdHLrDG7tg5JqfQS1-81" value="Nr_personal" style="ellipse;whiteSpace=wrap;html=1;align=center;" vertex="1" parent="1">
          <mxGeometry x="310" y="60" width="100" height="40" as="geometry" />
        </mxCell>
        <mxCell id="vZnBdHLrDG7tg5JqfQS1-82" value="" style="endArrow=none;html=1;rounded=0;exitX=1;exitY=1;exitDx=0;exitDy=0;entryX=0.25;entryY=0;entryDx=0;entryDy=0;" edge="1" parent="1" source="vZnBdHLrDG7tg5JqfQS1-81" target="vZnBdHLrDG7tg5JqfQS1-1">
          <mxGeometry relative="1" as="geometry">
            <mxPoint x="410" y="110" as="sourcePoint" />
            <mxPoint x="570" y="110" as="targetPoint" />
          </mxGeometry>
        </mxCell>
        <mxCell id="vZnBdHLrDG7tg5JqfQS1-83" value="" style="endArrow=none;html=1;rounded=0;exitX=0.5;exitY=0;exitDx=0;exitDy=0;entryX=0.5;entryY=1;entryDx=0;entryDy=0;" edge="1" parent="1" source="vZnBdHLrDG7tg5JqfQS1-1" target="vZnBdHLrDG7tg5JqfQS1-80">
          <mxGeometry relative="1" as="geometry">
            <mxPoint x="430" y="110" as="sourcePoint" />
            <mxPoint x="590" y="110" as="targetPoint" />
          </mxGeometry>
        </mxCell>
        <mxCell id="vZnBdHLrDG7tg5JqfQS1-84" value="" style="endArrow=none;html=1;rounded=0;exitX=1;exitY=0;exitDx=0;exitDy=0;entryX=0.5;entryY=1;entryDx=0;entryDy=0;" edge="1" parent="1" source="vZnBdHLrDG7tg5JqfQS1-1" target="vZnBdHLrDG7tg5JqfQS1-79">
          <mxGeometry relative="1" as="geometry">
            <mxPoint x="490" y="100" as="sourcePoint" />
            <mxPoint x="650" y="100" as="targetPoint" />
          </mxGeometry>
        </mxCell>
        <mxCell id="vZnBdHLrDG7tg5JqfQS1-85" value="KlientID" style="ellipse;whiteSpace=wrap;html=1;align=center;fontStyle=4;" vertex="1" parent="1">
          <mxGeometry x="630" y="170" width="100" height="40" as="geometry" />
        </mxCell>
        <mxCell id="vZnBdHLrDG7tg5JqfQS1-88" value="Nr_tel" style="ellipse;whiteSpace=wrap;html=1;align=center;" vertex="1" parent="1">
          <mxGeometry x="750" y="188" width="100" height="40" as="geometry" />
        </mxCell>
        <mxCell id="vZnBdHLrDG7tg5JqfQS1-89" value="email" style="ellipse;whiteSpace=wrap;html=1;align=center;" vertex="1" parent="1">
          <mxGeometry x="840" y="148" width="100" height="40" as="geometry" />
        </mxCell>
        <mxCell id="vZnBdHLrDG7tg5JqfQS1-90" value="Datelindja" style="ellipse;whiteSpace=wrap;html=1;align=center;" vertex="1" parent="1">
          <mxGeometry x="850" y="78" width="100" height="40" as="geometry" />
        </mxCell>
        <mxCell id="vZnBdHLrDG7tg5JqfQS1-91" value="Mbiemer" style="ellipse;whiteSpace=wrap;html=1;align=center;" vertex="1" parent="1">
          <mxGeometry x="780" y="30" width="100" height="40" as="geometry" />
        </mxCell>
        <mxCell id="vZnBdHLrDG7tg5JqfQS1-92" value="" style="endArrow=none;html=1;rounded=0;exitX=0.675;exitY=0.981;exitDx=0;exitDy=0;exitPerimeter=0;entryX=0.25;entryY=0;entryDx=0;entryDy=0;" edge="1" parent="1" source="vZnBdHLrDG7tg5JqfQS1-78" target="vZnBdHLrDG7tg5JqfQS1-3">
          <mxGeometry relative="1" as="geometry">
            <mxPoint x="680" y="100" as="sourcePoint" />
            <mxPoint x="840" y="100" as="targetPoint" />
          </mxGeometry>
        </mxCell>
        <mxCell id="vZnBdHLrDG7tg5JqfQS1-93" value="" style="endArrow=none;html=1;rounded=0;exitX=0.5;exitY=0;exitDx=0;exitDy=0;entryX=0;entryY=1;entryDx=0;entryDy=0;" edge="1" parent="1" source="vZnBdHLrDG7tg5JqfQS1-3" target="vZnBdHLrDG7tg5JqfQS1-91">
          <mxGeometry relative="1" as="geometry">
            <mxPoint x="790" y="100" as="sourcePoint" />
            <mxPoint x="950" y="100" as="targetPoint" />
          </mxGeometry>
        </mxCell>
        <mxCell id="vZnBdHLrDG7tg5JqfQS1-94" value="" style="endArrow=none;html=1;rounded=0;exitX=1;exitY=0;exitDx=0;exitDy=0;entryX=0;entryY=0.5;entryDx=0;entryDy=0;" edge="1" parent="1" source="vZnBdHLrDG7tg5JqfQS1-3" target="vZnBdHLrDG7tg5JqfQS1-90">
          <mxGeometry relative="1" as="geometry">
            <mxPoint x="810" y="110" as="sourcePoint" />
            <mxPoint x="970" y="110" as="targetPoint" />
          </mxGeometry>
        </mxCell>
        <mxCell id="vZnBdHLrDG7tg5JqfQS1-95" value="" style="endArrow=none;html=1;rounded=0;exitX=1;exitY=0.75;exitDx=0;exitDy=0;entryX=0;entryY=0.5;entryDx=0;entryDy=0;" edge="1" parent="1" source="vZnBdHLrDG7tg5JqfQS1-3" target="vZnBdHLrDG7tg5JqfQS1-89">
          <mxGeometry relative="1" as="geometry">
            <mxPoint x="840" y="150" as="sourcePoint" />
            <mxPoint x="1000" y="150" as="targetPoint" />
          </mxGeometry>
        </mxCell>
        <mxCell id="vZnBdHLrDG7tg5JqfQS1-96" value="" style="endArrow=none;html=1;rounded=0;exitX=0.75;exitY=1;exitDx=0;exitDy=0;entryX=0.5;entryY=0;entryDx=0;entryDy=0;" edge="1" parent="1" source="vZnBdHLrDG7tg5JqfQS1-3" target="vZnBdHLrDG7tg5JqfQS1-88">
          <mxGeometry relative="1" as="geometry">
            <mxPoint x="740" y="190" as="sourcePoint" />
            <mxPoint x="900" y="190" as="targetPoint" />
          </mxGeometry>
        </mxCell>
        <mxCell id="vZnBdHLrDG7tg5JqfQS1-97" value="" style="endArrow=none;html=1;rounded=0;exitX=1;exitY=0;exitDx=0;exitDy=0;entryX=0.25;entryY=1;entryDx=0;entryDy=0;" edge="1" parent="1" source="vZnBdHLrDG7tg5JqfQS1-85" target="vZnBdHLrDG7tg5JqfQS1-3">
          <mxGeometry relative="1" as="geometry">
            <mxPoint x="730" y="180" as="sourcePoint" />
            <mxPoint x="890" y="180" as="targetPoint" />
          </mxGeometry>
        </mxCell>
      </root>
    </mxGraphModel>
  </diagram>
</mxfile>
